<?xml version="1.0" encoding="utf-8"?>
<!-- Generator: Adobe Illustrator 22.0.1, SVG Export Plug-In . SVG Version: 6.00 Build 0)  -->
<svg version="1.1" id="Capa_1" xmlns="http://www.w3.org/2000/svg" xmlns:xlink="http://www.w3.org/1999/xlink" x="0px" y="0px"
	 viewBox="0 0 52 52" style="enable-background:new 0 0 52 52;" xml:space="preserve">
<style type="text/css">
	.st0{fill:#0061FF;}
	.st1{fill:#FFFFFF;}
</style>
<path class="st0" d="M47,52H5c-2.8,0-5-2.2-5-5L0,5c0-2.8,2.2-5,5-5l42,0c2.8,0,5,2.2,5,5v42C52,49.8,49.8,52,47,52z"/>
<path class="st1" d="M39.1,11.8c-0.2-0.2-0.4-0.2-0.6-0.2L20.8,14c-0.4,0.1-0.7,0.4-0.7,0.8v3.5v2.4v13.5c-1.1-1.1-2.7-1.7-4.4-1.7
	c-3.3,0-6,2.4-6,5.4s2.7,5.4,6,5.4s6-2.4,6-5.4V21.3l16.1-2.1v9.7c-1.1-1.1-2.6-1.7-4.4-1.7c-3.3,0-6,2.4-6,5.4s2.7,5.4,6,5.4
	c3.3,0,6-2.4,6-5.4V18.3v-2.4v-3.5C39.4,12.2,39.3,12,39.1,11.8z"/>
</svg>
